<svg version="1.1"
    xmlns="http://www.w3.org/2000/svg"
    xmlns:xlink="http://www.w3.org/1999/xlink">
    <symbol id="info" fill="currentColor" viewBox="0 0 20 20">
        <path fill-rule="evenodd" clip-rule="evenodd" d="M9.24995 6.99999C9.24995 6.58599 9.58595 6.24999 9.99996 6.24999C10.414 6.24999 10.75 6.58599 10.75 6.99999C10.75 7.41399 10.414 7.74999 9.99996 7.74999C9.58595 7.74999 9.24995 7.41399 9.24995 6.99999ZM9.24996 9.24999C9.24996 8.83599 9.58596 8.49999 9.99996 8.49999C10.414 8.49999 10.75 8.83599 10.75 9.24999V13C10.75 13.414 10.414 13.75 9.99996 13.75C9.58596 13.75 9.24996 13.414 9.24996 13V9.24999ZM9.99997 16C6.69172 16 3.99997 13.3083 3.99997 10C3.99997 6.69175 6.69172 3.99999 9.99997 3.99999C13.3082 3.99999 16 6.69175 16 10C16 13.3083 13.3082 16 9.99997 16ZM10 2.5C5.85775 2.5 2.5 5.85775 2.5 10C2.5 14.1423 5.85775 17.5 10 17.5C14.1415 17.5 17.5 14.1423 17.5 10C17.5 5.85775 14.1415 2.5 10 2.5Z"/>
    </symbol>
    <symbol id="arrow-right" fill="currentColor" viewBox="0 0 20 20">
        <path fill-rule="evenodd" clip-rule="evenodd" d="M8.75005 14.1667C8.53671 14.1667 8.32338 14.085 8.16088 13.9225C7.83505 13.5967 7.83505 13.07 8.16088 12.7442L10.915 9.99004L8.26505 7.24588C7.94588 6.91421 7.95505 6.38671 8.28588 6.06754C8.61755 5.74838 9.14505 5.75754 9.46421 6.08754L12.6825 9.42088C12.9984 9.74838 12.9942 10.2675 12.6725 10.5892L9.33921 13.9225C9.17671 14.085 8.96338 14.1667 8.75005 14.1667Z"/>
    </symbol>
    <symbol id="spinner" fill="currentColor" viewBox="0 0 20 20">
        <path d="M9.99996 1.66671C11.0943 1.66671 12.1779 1.88226 13.189 2.30104C14.2 2.71983 15.1187 3.33366 15.8925 4.10748C16.6663 4.88131 17.2802 5.79997 17.699 6.81101C18.1177 7.82206 18.3333 8.90569 18.3333 10L15.4166 10C15.4166 9.28871 15.2765 8.58435 15.0043 7.92717C14.7321 7.26999 14.3331 6.67286 13.8301 6.16988C13.3271 5.6669 12.73 5.26791 12.0728 4.99569C11.4156 4.72348 10.7113 4.58337 9.99996 4.58337L9.99996 1.66671Z" fill="currentColor"/>
    </symbol>
</svg>